<mxfile host="app.diagrams.net" modified="2022-11-05T13:01:47.143Z" agent="5.0 (Windows)" etag="rTKPNrlUQAI_PKwEi8jZ" version="20.5.2" type="github">
  <diagram id="C5RBs43oDa-KdzZeNtuy" name="Page-1">
    <mxGraphModel dx="810" dy="724" grid="1" gridSize="10" guides="1" tooltips="1" connect="1" arrows="1" fold="1" page="1" pageScale="1" pageWidth="827" pageHeight="1169" math="0" shadow="0">
      <root>
        <mxCell id="WIyWlLk6GJQsqaUBKTNV-0" />
        <mxCell id="WIyWlLk6GJQsqaUBKTNV-1" parent="WIyWlLk6GJQsqaUBKTNV-0" />
        <mxCell id="sQ_rwyiqdls1S6oIH8i4-3" value="User" style="swimlane;fontStyle=0;childLayout=stackLayout;horizontal=1;startSize=26;fillColor=none;horizontalStack=0;resizeParent=1;resizeParentMax=0;resizeLast=0;collapsible=1;marginBottom=0;" vertex="1" parent="WIyWlLk6GJQsqaUBKTNV-1">
          <mxGeometry x="354" y="90" width="140" height="130" as="geometry" />
        </mxCell>
        <mxCell id="sQ_rwyiqdls1S6oIH8i4-9" value="+ id: integer" style="text;strokeColor=none;fillColor=none;align=left;verticalAlign=top;spacingLeft=4;spacingRight=4;overflow=hidden;rotatable=0;points=[[0,0.5],[1,0.5]];portConstraint=eastwest;" vertex="1" parent="sQ_rwyiqdls1S6oIH8i4-3">
          <mxGeometry y="26" width="140" height="26" as="geometry" />
        </mxCell>
        <mxCell id="sQ_rwyiqdls1S6oIH8i4-4" value="+ Nome: varchar" style="text;strokeColor=none;fillColor=none;align=left;verticalAlign=top;spacingLeft=4;spacingRight=4;overflow=hidden;rotatable=0;points=[[0,0.5],[1,0.5]];portConstraint=eastwest;" vertex="1" parent="sQ_rwyiqdls1S6oIH8i4-3">
          <mxGeometry y="52" width="140" height="26" as="geometry" />
        </mxCell>
        <mxCell id="sQ_rwyiqdls1S6oIH8i4-7" value="+ Senha: varchar" style="text;strokeColor=none;fillColor=none;align=left;verticalAlign=top;spacingLeft=4;spacingRight=4;overflow=hidden;rotatable=0;points=[[0,0.5],[1,0.5]];portConstraint=eastwest;" vertex="1" parent="sQ_rwyiqdls1S6oIH8i4-3">
          <mxGeometry y="78" width="140" height="26" as="geometry" />
        </mxCell>
        <mxCell id="sQ_rwyiqdls1S6oIH8i4-8" value="+ login: varchar" style="text;strokeColor=none;fillColor=none;align=left;verticalAlign=top;spacingLeft=4;spacingRight=4;overflow=hidden;rotatable=0;points=[[0,0.5],[1,0.5]];portConstraint=eastwest;" vertex="1" parent="sQ_rwyiqdls1S6oIH8i4-3">
          <mxGeometry y="104" width="140" height="26" as="geometry" />
        </mxCell>
        <mxCell id="sQ_rwyiqdls1S6oIH8i4-11" value="lista" style="swimlane;fontStyle=0;childLayout=stackLayout;horizontal=1;startSize=26;fillColor=none;horizontalStack=0;resizeParent=1;resizeParentMax=0;resizeLast=0;collapsible=1;marginBottom=0;" vertex="1" parent="WIyWlLk6GJQsqaUBKTNV-1">
          <mxGeometry x="354" y="290" width="140" height="130" as="geometry" />
        </mxCell>
        <mxCell id="sQ_rwyiqdls1S6oIH8i4-15" value="+ id: integer" style="text;strokeColor=none;fillColor=none;align=left;verticalAlign=top;spacingLeft=4;spacingRight=4;overflow=hidden;rotatable=0;points=[[0,0.5],[1,0.5]];portConstraint=eastwest;" vertex="1" parent="sQ_rwyiqdls1S6oIH8i4-11">
          <mxGeometry y="26" width="140" height="26" as="geometry" />
        </mxCell>
        <mxCell id="sQ_rwyiqdls1S6oIH8i4-12" value="+ desc: varchar" style="text;strokeColor=none;fillColor=none;align=left;verticalAlign=top;spacingLeft=4;spacingRight=4;overflow=hidden;rotatable=0;points=[[0,0.5],[1,0.5]];portConstraint=eastwest;" vertex="1" parent="sQ_rwyiqdls1S6oIH8i4-11">
          <mxGeometry y="52" width="140" height="26" as="geometry" />
        </mxCell>
        <mxCell id="sQ_rwyiqdls1S6oIH8i4-13" value="+ criacao: timestamp" style="text;strokeColor=none;fillColor=none;align=left;verticalAlign=top;spacingLeft=4;spacingRight=4;overflow=hidden;rotatable=0;points=[[0,0.5],[1,0.5]];portConstraint=eastwest;" vertex="1" parent="sQ_rwyiqdls1S6oIH8i4-11">
          <mxGeometry y="78" width="140" height="26" as="geometry" />
        </mxCell>
        <mxCell id="sQ_rwyiqdls1S6oIH8i4-14" value="+ ativo: boolean" style="text;strokeColor=none;fillColor=none;align=left;verticalAlign=top;spacingLeft=4;spacingRight=4;overflow=hidden;rotatable=0;points=[[0,0.5],[1,0.5]];portConstraint=eastwest;" vertex="1" parent="sQ_rwyiqdls1S6oIH8i4-11">
          <mxGeometry y="104" width="140" height="26" as="geometry" />
        </mxCell>
        <mxCell id="sQ_rwyiqdls1S6oIH8i4-16" value="user_lista" style="swimlane;fontStyle=0;childLayout=stackLayout;horizontal=1;startSize=26;fillColor=none;horizontalStack=0;resizeParent=1;resizeParentMax=0;resizeLast=0;collapsible=1;marginBottom=0;" vertex="1" parent="WIyWlLk6GJQsqaUBKTNV-1">
          <mxGeometry x="564" y="116" width="140" height="104" as="geometry" />
        </mxCell>
        <mxCell id="sQ_rwyiqdls1S6oIH8i4-17" value="+ id: integer" style="text;strokeColor=none;fillColor=none;align=left;verticalAlign=top;spacingLeft=4;spacingRight=4;overflow=hidden;rotatable=0;points=[[0,0.5],[1,0.5]];portConstraint=eastwest;" vertex="1" parent="sQ_rwyiqdls1S6oIH8i4-16">
          <mxGeometry y="26" width="140" height="26" as="geometry" />
        </mxCell>
        <mxCell id="sQ_rwyiqdls1S6oIH8i4-21" value="+ id_user: integer" style="text;strokeColor=none;fillColor=none;align=left;verticalAlign=top;spacingLeft=4;spacingRight=4;overflow=hidden;rotatable=0;points=[[0,0.5],[1,0.5]];portConstraint=eastwest;" vertex="1" parent="sQ_rwyiqdls1S6oIH8i4-16">
          <mxGeometry y="52" width="140" height="26" as="geometry" />
        </mxCell>
        <mxCell id="sQ_rwyiqdls1S6oIH8i4-22" value="+ id_lista: integer" style="text;strokeColor=none;fillColor=none;align=left;verticalAlign=top;spacingLeft=4;spacingRight=4;overflow=hidden;rotatable=0;points=[[0,0.5],[1,0.5]];portConstraint=eastwest;" vertex="1" parent="sQ_rwyiqdls1S6oIH8i4-16">
          <mxGeometry y="78" width="140" height="26" as="geometry" />
        </mxCell>
        <mxCell id="sQ_rwyiqdls1S6oIH8i4-26" value="" style="endArrow=block;endFill=1;html=1;edgeStyle=orthogonalEdgeStyle;align=left;verticalAlign=top;rounded=0;exitX=1;exitY=0.5;exitDx=0;exitDy=0;" edge="1" parent="WIyWlLk6GJQsqaUBKTNV-1" source="sQ_rwyiqdls1S6oIH8i4-9" target="sQ_rwyiqdls1S6oIH8i4-21">
          <mxGeometry x="-1" relative="1" as="geometry">
            <mxPoint x="524" y="260" as="sourcePoint" />
            <mxPoint x="684" y="260" as="targetPoint" />
          </mxGeometry>
        </mxCell>
        <mxCell id="sQ_rwyiqdls1S6oIH8i4-27" value="N" style="edgeLabel;resizable=0;html=1;align=left;verticalAlign=bottom;" connectable="0" vertex="1" parent="sQ_rwyiqdls1S6oIH8i4-26">
          <mxGeometry x="-1" relative="1" as="geometry">
            <mxPoint x="3" as="offset" />
          </mxGeometry>
        </mxCell>
        <mxCell id="sQ_rwyiqdls1S6oIH8i4-28" value="N" style="edgeLabel;resizable=0;html=1;align=left;verticalAlign=bottom;" connectable="0" vertex="1" parent="WIyWlLk6GJQsqaUBKTNV-1">
          <mxGeometry x="552" y="172" as="geometry">
            <mxPoint x="-7" y="9" as="offset" />
          </mxGeometry>
        </mxCell>
        <mxCell id="sQ_rwyiqdls1S6oIH8i4-29" value="" style="endArrow=block;endFill=1;html=1;edgeStyle=orthogonalEdgeStyle;align=left;verticalAlign=top;rounded=0;exitX=1;exitY=0.5;exitDx=0;exitDy=0;entryX=0;entryY=0.5;entryDx=0;entryDy=0;" edge="1" parent="WIyWlLk6GJQsqaUBKTNV-1" source="sQ_rwyiqdls1S6oIH8i4-15" target="sQ_rwyiqdls1S6oIH8i4-22">
          <mxGeometry x="-1" relative="1" as="geometry">
            <mxPoint x="534" y="340" as="sourcePoint" />
            <mxPoint x="604" y="392" as="targetPoint" />
          </mxGeometry>
        </mxCell>
        <mxCell id="sQ_rwyiqdls1S6oIH8i4-30" value="N" style="edgeLabel;resizable=0;html=1;align=left;verticalAlign=bottom;" connectable="0" vertex="1" parent="sQ_rwyiqdls1S6oIH8i4-29">
          <mxGeometry x="-1" relative="1" as="geometry">
            <mxPoint x="3" as="offset" />
          </mxGeometry>
        </mxCell>
        <mxCell id="sQ_rwyiqdls1S6oIH8i4-32" value="N" style="edgeLabel;resizable=0;html=1;align=left;verticalAlign=bottom;" connectable="0" vertex="1" parent="WIyWlLk6GJQsqaUBKTNV-1">
          <mxGeometry x="552" y="199" as="geometry">
            <mxPoint x="-7" y="9" as="offset" />
          </mxGeometry>
        </mxCell>
        <mxCell id="sQ_rwyiqdls1S6oIH8i4-33" value="produto" style="swimlane;fontStyle=0;childLayout=stackLayout;horizontal=1;startSize=26;fillColor=none;horizontalStack=0;resizeParent=1;resizeParentMax=0;resizeLast=0;collapsible=1;marginBottom=0;" vertex="1" parent="WIyWlLk6GJQsqaUBKTNV-1">
          <mxGeometry x="354" y="471" width="140" height="156" as="geometry" />
        </mxCell>
        <mxCell id="sQ_rwyiqdls1S6oIH8i4-34" value="+ id: integer" style="text;strokeColor=none;fillColor=none;align=left;verticalAlign=top;spacingLeft=4;spacingRight=4;overflow=hidden;rotatable=0;points=[[0,0.5],[1,0.5]];portConstraint=eastwest;" vertex="1" parent="sQ_rwyiqdls1S6oIH8i4-33">
          <mxGeometry y="26" width="140" height="26" as="geometry" />
        </mxCell>
        <mxCell id="sQ_rwyiqdls1S6oIH8i4-35" value="+ desc: varchar" style="text;strokeColor=none;fillColor=none;align=left;verticalAlign=top;spacingLeft=4;spacingRight=4;overflow=hidden;rotatable=0;points=[[0,0.5],[1,0.5]];portConstraint=eastwest;" vertex="1" parent="sQ_rwyiqdls1S6oIH8i4-33">
          <mxGeometry y="52" width="140" height="26" as="geometry" />
        </mxCell>
        <mxCell id="sQ_rwyiqdls1S6oIH8i4-36" value="+ valor_ult: number" style="text;strokeColor=none;fillColor=none;align=left;verticalAlign=top;spacingLeft=4;spacingRight=4;overflow=hidden;rotatable=0;points=[[0,0.5],[1,0.5]];portConstraint=eastwest;" vertex="1" parent="sQ_rwyiqdls1S6oIH8i4-33">
          <mxGeometry y="78" width="140" height="26" as="geometry" />
        </mxCell>
        <mxCell id="sQ_rwyiqdls1S6oIH8i4-66" value="+ ativo: boolean" style="text;strokeColor=none;fillColor=none;align=left;verticalAlign=top;spacingLeft=4;spacingRight=4;overflow=hidden;rotatable=0;points=[[0,0.5],[1,0.5]];portConstraint=eastwest;" vertex="1" parent="sQ_rwyiqdls1S6oIH8i4-33">
          <mxGeometry y="104" width="140" height="26" as="geometry" />
        </mxCell>
        <mxCell id="sQ_rwyiqdls1S6oIH8i4-37" value="+ cat_id: integer" style="text;strokeColor=none;fillColor=none;align=left;verticalAlign=top;spacingLeft=4;spacingRight=4;overflow=hidden;rotatable=0;points=[[0,0.5],[1,0.5]];portConstraint=eastwest;" vertex="1" parent="sQ_rwyiqdls1S6oIH8i4-33">
          <mxGeometry y="130" width="140" height="26" as="geometry" />
        </mxCell>
        <mxCell id="sQ_rwyiqdls1S6oIH8i4-38" value="" style="endArrow=block;endFill=1;html=1;edgeStyle=orthogonalEdgeStyle;align=left;verticalAlign=top;rounded=0;exitX=0;exitY=0.5;exitDx=0;exitDy=0;entryX=1;entryY=0.5;entryDx=0;entryDy=0;" edge="1" parent="WIyWlLk6GJQsqaUBKTNV-1" source="sQ_rwyiqdls1S6oIH8i4-34" target="sQ_rwyiqdls1S6oIH8i4-45">
          <mxGeometry x="-1" relative="1" as="geometry">
            <mxPoint x="534" y="521" as="sourcePoint" />
            <mxPoint x="564" y="388" as="targetPoint" />
            <Array as="points">
              <mxPoint x="314" y="510" />
              <mxPoint x="314" y="458" />
            </Array>
          </mxGeometry>
        </mxCell>
        <mxCell id="sQ_rwyiqdls1S6oIH8i4-39" value="1" style="edgeLabel;resizable=0;html=1;align=left;verticalAlign=bottom;" connectable="0" vertex="1" parent="sQ_rwyiqdls1S6oIH8i4-38">
          <mxGeometry x="-1" relative="1" as="geometry">
            <mxPoint x="-12" y="-1" as="offset" />
          </mxGeometry>
        </mxCell>
        <mxCell id="sQ_rwyiqdls1S6oIH8i4-42" value="N" style="edgeLabel;resizable=0;html=1;align=left;verticalAlign=bottom;" connectable="0" vertex="1" parent="WIyWlLk6GJQsqaUBKTNV-1">
          <mxGeometry x="334" y="330" as="geometry" />
        </mxCell>
        <mxCell id="sQ_rwyiqdls1S6oIH8i4-43" value="item_lista" style="swimlane;fontStyle=0;childLayout=stackLayout;horizontal=1;startSize=26;fillColor=none;horizontalStack=0;resizeParent=1;resizeParentMax=0;resizeLast=0;collapsible=1;marginBottom=0;" vertex="1" parent="WIyWlLk6GJQsqaUBKTNV-1">
          <mxGeometry x="154" y="367" width="140" height="182" as="geometry" />
        </mxCell>
        <mxCell id="sQ_rwyiqdls1S6oIH8i4-44" value="+ id: integer" style="text;strokeColor=none;fillColor=none;align=left;verticalAlign=top;spacingLeft=4;spacingRight=4;overflow=hidden;rotatable=0;points=[[0,0.5],[1,0.5]];portConstraint=eastwest;" vertex="1" parent="sQ_rwyiqdls1S6oIH8i4-43">
          <mxGeometry y="26" width="140" height="26" as="geometry" />
        </mxCell>
        <mxCell id="sQ_rwyiqdls1S6oIH8i4-51" value="+ id_lista: integer" style="text;strokeColor=none;fillColor=none;align=left;verticalAlign=top;spacingLeft=4;spacingRight=4;overflow=hidden;rotatable=0;points=[[0,0.5],[1,0.5]];portConstraint=eastwest;" vertex="1" parent="sQ_rwyiqdls1S6oIH8i4-43">
          <mxGeometry y="52" width="140" height="26" as="geometry" />
        </mxCell>
        <mxCell id="sQ_rwyiqdls1S6oIH8i4-45" value="+ id_item: integer" style="text;strokeColor=none;fillColor=none;align=left;verticalAlign=top;spacingLeft=4;spacingRight=4;overflow=hidden;rotatable=0;points=[[0,0.5],[1,0.5]];portConstraint=eastwest;" vertex="1" parent="sQ_rwyiqdls1S6oIH8i4-43">
          <mxGeometry y="78" width="140" height="26" as="geometry" />
        </mxCell>
        <mxCell id="sQ_rwyiqdls1S6oIH8i4-55" value="+ ativo: boolean" style="text;strokeColor=none;fillColor=none;align=left;verticalAlign=top;spacingLeft=4;spacingRight=4;overflow=hidden;rotatable=0;points=[[0,0.5],[1,0.5]];portConstraint=eastwest;" vertex="1" parent="sQ_rwyiqdls1S6oIH8i4-43">
          <mxGeometry y="104" width="140" height="26" as="geometry" />
        </mxCell>
        <mxCell id="sQ_rwyiqdls1S6oIH8i4-56" value="+ quantidade: int" style="text;strokeColor=none;fillColor=none;align=left;verticalAlign=top;spacingLeft=4;spacingRight=4;overflow=hidden;rotatable=0;points=[[0,0.5],[1,0.5]];portConstraint=eastwest;" vertex="1" parent="sQ_rwyiqdls1S6oIH8i4-43">
          <mxGeometry y="130" width="140" height="26" as="geometry" />
        </mxCell>
        <mxCell id="sQ_rwyiqdls1S6oIH8i4-46" value="+ tipo_unidade: varchar" style="text;strokeColor=none;fillColor=none;align=left;verticalAlign=top;spacingLeft=4;spacingRight=4;overflow=hidden;rotatable=0;points=[[0,0.5],[1,0.5]];portConstraint=eastwest;" vertex="1" parent="sQ_rwyiqdls1S6oIH8i4-43">
          <mxGeometry y="156" width="140" height="26" as="geometry" />
        </mxCell>
        <mxCell id="sQ_rwyiqdls1S6oIH8i4-52" value="N" style="edgeLabel;resizable=0;html=1;align=left;verticalAlign=bottom;" connectable="0" vertex="1" parent="WIyWlLk6GJQsqaUBKTNV-1">
          <mxGeometry x="304" y="457" as="geometry" />
        </mxCell>
        <mxCell id="sQ_rwyiqdls1S6oIH8i4-53" style="edgeStyle=orthogonalEdgeStyle;rounded=0;orthogonalLoop=1;jettySize=auto;html=1;" edge="1" parent="WIyWlLk6GJQsqaUBKTNV-1" source="sQ_rwyiqdls1S6oIH8i4-51" target="sQ_rwyiqdls1S6oIH8i4-15">
          <mxGeometry relative="1" as="geometry" />
        </mxCell>
        <mxCell id="sQ_rwyiqdls1S6oIH8i4-54" value="N" style="edgeLabel;resizable=0;html=1;align=left;verticalAlign=bottom;" connectable="0" vertex="1" parent="WIyWlLk6GJQsqaUBKTNV-1">
          <mxGeometry x="296" y="432" as="geometry" />
        </mxCell>
        <mxCell id="sQ_rwyiqdls1S6oIH8i4-57" value="categoria" style="swimlane;fontStyle=0;childLayout=stackLayout;horizontal=1;startSize=26;fillColor=none;horizontalStack=0;resizeParent=1;resizeParentMax=0;resizeLast=0;collapsible=1;marginBottom=0;" vertex="1" parent="WIyWlLk6GJQsqaUBKTNV-1">
          <mxGeometry x="534" y="471" width="140" height="130" as="geometry" />
        </mxCell>
        <mxCell id="sQ_rwyiqdls1S6oIH8i4-58" value="+ id: integer" style="text;strokeColor=none;fillColor=none;align=left;verticalAlign=top;spacingLeft=4;spacingRight=4;overflow=hidden;rotatable=0;points=[[0,0.5],[1,0.5]];portConstraint=eastwest;" vertex="1" parent="sQ_rwyiqdls1S6oIH8i4-57">
          <mxGeometry y="26" width="140" height="26" as="geometry" />
        </mxCell>
        <mxCell id="sQ_rwyiqdls1S6oIH8i4-59" value="+ desc: varchar" style="text;strokeColor=none;fillColor=none;align=left;verticalAlign=top;spacingLeft=4;spacingRight=4;overflow=hidden;rotatable=0;points=[[0,0.5],[1,0.5]];portConstraint=eastwest;" vertex="1" parent="sQ_rwyiqdls1S6oIH8i4-57">
          <mxGeometry y="52" width="140" height="26" as="geometry" />
        </mxCell>
        <mxCell id="sQ_rwyiqdls1S6oIH8i4-60" value="+ icon: number" style="text;strokeColor=none;fillColor=none;align=left;verticalAlign=top;spacingLeft=4;spacingRight=4;overflow=hidden;rotatable=0;points=[[0,0.5],[1,0.5]];portConstraint=eastwest;" vertex="1" parent="sQ_rwyiqdls1S6oIH8i4-57">
          <mxGeometry y="78" width="140" height="26" as="geometry" />
        </mxCell>
        <mxCell id="sQ_rwyiqdls1S6oIH8i4-61" value="+ ativo: boolean" style="text;strokeColor=none;fillColor=none;align=left;verticalAlign=top;spacingLeft=4;spacingRight=4;overflow=hidden;rotatable=0;points=[[0,0.5],[1,0.5]];portConstraint=eastwest;" vertex="1" parent="sQ_rwyiqdls1S6oIH8i4-57">
          <mxGeometry y="104" width="140" height="26" as="geometry" />
        </mxCell>
        <mxCell id="sQ_rwyiqdls1S6oIH8i4-67" style="edgeStyle=orthogonalEdgeStyle;rounded=0;orthogonalLoop=1;jettySize=auto;html=1;entryX=0;entryY=0.154;entryDx=0;entryDy=0;entryPerimeter=0;" edge="1" parent="WIyWlLk6GJQsqaUBKTNV-1" source="sQ_rwyiqdls1S6oIH8i4-37" target="sQ_rwyiqdls1S6oIH8i4-58">
          <mxGeometry relative="1" as="geometry" />
        </mxCell>
        <mxCell id="sQ_rwyiqdls1S6oIH8i4-69" value="N" style="edgeLabel;resizable=0;html=1;align=left;verticalAlign=bottom;" connectable="0" vertex="1" parent="WIyWlLk6GJQsqaUBKTNV-1">
          <mxGeometry x="519" y="500" as="geometry" />
        </mxCell>
        <mxCell id="sQ_rwyiqdls1S6oIH8i4-70" value="&lt;div&gt;1&lt;/div&gt;" style="edgeLabel;resizable=0;html=1;align=left;verticalAlign=bottom;" connectable="0" vertex="1" parent="WIyWlLk6GJQsqaUBKTNV-1">
          <mxGeometry x="319" y="473" as="geometry">
            <mxPoint x="176" y="141" as="offset" />
          </mxGeometry>
        </mxCell>
        <mxCell id="sQ_rwyiqdls1S6oIH8i4-71" value="Projeto de lista de compras ainda sem nome" style="text;html=1;strokeColor=none;fillColor=none;align=center;verticalAlign=middle;whiteSpace=wrap;rounded=0;" vertex="1" parent="WIyWlLk6GJQsqaUBKTNV-1">
          <mxGeometry x="362" y="30" width="190" height="30" as="geometry" />
        </mxCell>
      </root>
    </mxGraphModel>
  </diagram>
</mxfile>
